<mxfile host="65bd71144e" pages="6">
    <diagram name="AvLoc" id="YHF-bC3SnExw_Lav_KZW">
        <mxGraphModel dx="2310" dy="1437" grid="1" gridSize="10" guides="1" tooltips="1" connect="1" arrows="1" fold="1" page="1" pageScale="1" pageWidth="827" pageHeight="1169" math="0" shadow="0">
            <root>
                <mxCell id="0"/>
                <mxCell id="1" parent="0"/>
                <mxCell id="b--MZziDcexrT8c8gKCq-1" style="edgeStyle=orthogonalEdgeStyle;rounded=0;orthogonalLoop=1;jettySize=auto;html=1;exitX=0.5;exitY=1;exitDx=0;exitDy=0;entryX=0.25;entryY=0;entryDx=0;entryDy=0;" parent="1" source="OwnCPrE_ipptbpcYI6jc-3" target="OwnCPrE_ipptbpcYI6jc-5" edge="1">
                    <mxGeometry relative="1" as="geometry"/>
                </mxCell>
                <mxCell id="OwnCPrE_ipptbpcYI6jc-3" value="&lt;font face=&quot;Courier New&quot;&gt;&lt;b style=&quot;&quot;&gt;...&lt;/b&gt;&lt;/font&gt;" style="rounded=0;whiteSpace=wrap;html=1;" parent="1" vertex="1">
                    <mxGeometry x="260" y="200" width="120" height="30" as="geometry"/>
                </mxCell>
                <mxCell id="b--MZziDcexrT8c8gKCq-2" style="edgeStyle=orthogonalEdgeStyle;rounded=0;orthogonalLoop=1;jettySize=auto;html=1;exitX=0.5;exitY=1;exitDx=0;exitDy=0;entryX=0.75;entryY=0;entryDx=0;entryDy=0;" parent="1" source="OwnCPrE_ipptbpcYI6jc-4" target="OwnCPrE_ipptbpcYI6jc-5" edge="1">
                    <mxGeometry relative="1" as="geometry"/>
                </mxCell>
                <mxCell id="OwnCPrE_ipptbpcYI6jc-4" value="&lt;font face=&quot;Courier New&quot;&gt;...&lt;/font&gt;" style="rounded=0;whiteSpace=wrap;html=1;align=center;" parent="1" vertex="1">
                    <mxGeometry x="420" y="200" width="120" height="30" as="geometry"/>
                </mxCell>
                <mxCell id="kqLLty60hGLT2lMvuTzy-8" style="edgeStyle=orthogonalEdgeStyle;rounded=0;orthogonalLoop=1;jettySize=auto;html=1;exitX=0.5;exitY=1;exitDx=0;exitDy=0;entryX=0.5;entryY=0;entryDx=0;entryDy=0;" parent="1" source="OwnCPrE_ipptbpcYI6jc-5" target="kqLLty60hGLT2lMvuTzy-7" edge="1">
                    <mxGeometry relative="1" as="geometry"/>
                </mxCell>
                <mxCell id="OwnCPrE_ipptbpcYI6jc-5" value="&lt;b&gt;&lt;font color=&quot;#0000ff&quot; face=&quot;Courier New&quot;&gt;let&lt;/font&gt;&lt;/b&gt;&lt;font face=&quot;Courier New&quot;&gt;&amp;nbsp;y := a + b&lt;/font&gt;" style="rounded=0;whiteSpace=wrap;html=1;" parent="1" vertex="1">
                    <mxGeometry x="340" y="270" width="120" height="30" as="geometry"/>
                </mxCell>
                <mxCell id="2" style="edgeStyle=none;html=1;exitX=0.5;exitY=1;exitDx=0;exitDy=0;" parent="1" source="kqLLty60hGLT2lMvuTzy-1" edge="1">
                    <mxGeometry relative="1" as="geometry">
                        <mxPoint x="400" y="420" as="targetPoint"/>
                    </mxGeometry>
                </mxCell>
                <mxCell id="kqLLty60hGLT2lMvuTzy-1" value="&lt;font face=&quot;Courier New&quot;&gt;...&lt;/font&gt;" style="rounded=0;whiteSpace=wrap;html=1;" parent="1" vertex="1">
                    <mxGeometry x="340" y="370" width="120" height="30" as="geometry"/>
                </mxCell>
                <mxCell id="kqLLty60hGLT2lMvuTzy-4" style="edgeStyle=orthogonalEdgeStyle;rounded=0;orthogonalLoop=1;jettySize=auto;html=1;exitX=0.5;exitY=1;exitDx=0;exitDy=0;entryX=0.5;entryY=0;entryDx=0;entryDy=0;" parent="1" source="kqLLty60hGLT2lMvuTzy-3" target="OwnCPrE_ipptbpcYI6jc-3" edge="1">
                    <mxGeometry relative="1" as="geometry"/>
                </mxCell>
                <mxCell id="kqLLty60hGLT2lMvuTzy-3" value="&lt;font face=&quot;Courier New&quot;&gt;&lt;b style=&quot;color: rgb(0, 0, 255);&quot;&gt;let &lt;/b&gt;x := a + b&lt;/font&gt;" style="rounded=0;whiteSpace=wrap;html=1;" parent="1" vertex="1">
                    <mxGeometry x="260" y="150" width="120" height="30" as="geometry"/>
                </mxCell>
                <mxCell id="kqLLty60hGLT2lMvuTzy-6" style="edgeStyle=orthogonalEdgeStyle;rounded=0;orthogonalLoop=1;jettySize=auto;html=1;exitX=0.5;exitY=1;exitDx=0;exitDy=0;entryX=0.5;entryY=0;entryDx=0;entryDy=0;" parent="1" source="kqLLty60hGLT2lMvuTzy-5" target="OwnCPrE_ipptbpcYI6jc-4" edge="1">
                    <mxGeometry relative="1" as="geometry"/>
                </mxCell>
                <mxCell id="kqLLty60hGLT2lMvuTzy-5" value="&lt;font face=&quot;Courier New&quot;&gt;...&lt;/font&gt;" style="rounded=0;whiteSpace=wrap;html=1;" parent="1" vertex="1">
                    <mxGeometry x="420" y="150" width="120" height="30" as="geometry"/>
                </mxCell>
                <mxCell id="kqLLty60hGLT2lMvuTzy-9" style="edgeStyle=orthogonalEdgeStyle;rounded=0;orthogonalLoop=1;jettySize=auto;html=1;exitX=0.5;exitY=1;exitDx=0;exitDy=0;entryX=0.5;entryY=0;entryDx=0;entryDy=0;" parent="1" source="kqLLty60hGLT2lMvuTzy-7" target="kqLLty60hGLT2lMvuTzy-1" edge="1">
                    <mxGeometry relative="1" as="geometry"/>
                </mxCell>
                <mxCell id="kqLLty60hGLT2lMvuTzy-7" value="&lt;b&gt;&lt;font color=&quot;#0000ff&quot; face=&quot;Courier New&quot;&gt;let&lt;/font&gt;&lt;/b&gt;&lt;font face=&quot;Courier New&quot;&gt;&amp;nbsp;z := a + b&lt;br&gt;&lt;/font&gt;" style="rounded=0;whiteSpace=wrap;html=1;" parent="1" vertex="1">
                    <mxGeometry x="340" y="320" width="120" height="30" as="geometry"/>
                </mxCell>
                <mxCell id="5" style="edgeStyle=none;html=1;exitX=0.25;exitY=1;exitDx=0;exitDy=0;entryX=0.5;entryY=0;entryDx=0;entryDy=0;fontFamily=Courier New;fontColor=#000000;rounded=0;" edge="1" parent="1" source="3" target="kqLLty60hGLT2lMvuTzy-3">
                    <mxGeometry relative="1" as="geometry">
                        <Array as="points">
                            <mxPoint x="370" y="130"/>
                            <mxPoint x="320" y="130"/>
                        </Array>
                    </mxGeometry>
                </mxCell>
                <mxCell id="6" style="edgeStyle=none;rounded=0;html=1;exitX=0.75;exitY=1;exitDx=0;exitDy=0;entryX=0.5;entryY=0;entryDx=0;entryDy=0;fontFamily=Courier New;fontColor=#000000;" edge="1" parent="1" source="3" target="kqLLty60hGLT2lMvuTzy-5">
                    <mxGeometry relative="1" as="geometry">
                        <Array as="points">
                            <mxPoint x="430" y="130"/>
                            <mxPoint x="480" y="130"/>
                        </Array>
                    </mxGeometry>
                </mxCell>
                <mxCell id="3" value="&lt;font face=&quot;Courier New&quot;&gt;...&lt;/font&gt;" style="rounded=0;whiteSpace=wrap;html=1;" vertex="1" parent="1">
                    <mxGeometry x="340" y="80" width="120" height="30" as="geometry"/>
                </mxCell>
                <mxCell id="7" style="edgeStyle=none;rounded=1;html=1;fontFamily=Courier New;fontColor=#000000;fillColor=#f8cecc;strokeColor=#FF3333;strokeWidth=2;exitX=0.08;exitY=0;exitDx=0;exitDy=0;exitPerimeter=0;endArrow=oval;endFill=1;entryX=0.083;entryY=1.002;entryDx=0;entryDy=0;entryPerimeter=0;startArrow=oval;startFill=1;" edge="1" parent="1" source="kqLLty60hGLT2lMvuTzy-3" target="kqLLty60hGLT2lMvuTzy-7">
                    <mxGeometry relative="1" as="geometry">
                        <mxPoint x="280" y="180" as="sourcePoint"/>
                        <mxPoint x="350" y="350" as="targetPoint"/>
                        <Array as="points">
                            <mxPoint x="270" y="260"/>
                            <mxPoint x="350" y="260"/>
                            <mxPoint x="350" y="290"/>
                            <mxPoint x="350" y="310"/>
                        </Array>
                    </mxGeometry>
                </mxCell>
                <mxCell id="41" style="edgeStyle=orthogonalEdgeStyle;rounded=0;orthogonalLoop=1;jettySize=auto;html=1;exitX=0.5;exitY=1;exitDx=0;exitDy=0;entryX=0.25;entryY=0;entryDx=0;entryDy=0;" edge="1" parent="1" source="42" target="46">
                    <mxGeometry relative="1" as="geometry"/>
                </mxCell>
                <mxCell id="42" value="&lt;font face=&quot;Courier New&quot;&gt;&lt;b style=&quot;&quot;&gt;...&lt;/b&gt;&lt;/font&gt;" style="rounded=0;whiteSpace=wrap;html=1;" vertex="1" parent="1">
                    <mxGeometry x="600" y="200" width="120" height="30" as="geometry"/>
                </mxCell>
                <mxCell id="43" style="edgeStyle=orthogonalEdgeStyle;rounded=0;orthogonalLoop=1;jettySize=auto;html=1;exitX=0.5;exitY=1;exitDx=0;exitDy=0;entryX=0.75;entryY=0;entryDx=0;entryDy=0;" edge="1" parent="1" source="44" target="46">
                    <mxGeometry relative="1" as="geometry"/>
                </mxCell>
                <mxCell id="44" value="&lt;font face=&quot;Courier New&quot;&gt;...&lt;/font&gt;" style="rounded=0;whiteSpace=wrap;html=1;align=center;" vertex="1" parent="1">
                    <mxGeometry x="760" y="200" width="120" height="30" as="geometry"/>
                </mxCell>
                <mxCell id="45" style="edgeStyle=orthogonalEdgeStyle;rounded=0;orthogonalLoop=1;jettySize=auto;html=1;exitX=0.5;exitY=1;exitDx=0;exitDy=0;entryX=0.5;entryY=0;entryDx=0;entryDy=0;" edge="1" parent="1" source="46" target="56">
                    <mxGeometry relative="1" as="geometry"/>
                </mxCell>
                <mxCell id="46" value="&lt;b&gt;&lt;font color=&quot;#0000ff&quot; face=&quot;Courier New&quot;&gt;let&lt;/font&gt;&lt;/b&gt;&lt;font face=&quot;Courier New&quot;&gt;&amp;nbsp;y := a + b&lt;/font&gt;" style="rounded=0;whiteSpace=wrap;html=1;" vertex="1" parent="1">
                    <mxGeometry x="680" y="270" width="120" height="30" as="geometry"/>
                </mxCell>
                <mxCell id="47" value="" style="edgeStyle=none;rounded=1;html=1;strokeColor=#d79b00;strokeWidth=1;fontFamily=Courier New;fontSize=10;fontColor=#000000;startArrow=none;startFill=0;endArrow=classic;endFill=1;dashed=1;fillColor=#ffe6cc;" edge="1" parent="1" source="48" target="46">
                    <mxGeometry relative="1" as="geometry"/>
                </mxCell>
                <mxCell id="48" value="&lt;font style=&quot;font-size: 10px;&quot; face=&quot;Courier New&quot;&gt;replace&lt;/font&gt;" style="rounded=1;whiteSpace=wrap;html=1;fillColor=#ffe6cc;strokeColor=#d79b00;fillStyle=auto;dashed=1;" vertex="1" parent="1">
                    <mxGeometry x="830" y="275" width="70" height="20" as="geometry"/>
                </mxCell>
                <mxCell id="49" style="edgeStyle=none;html=1;exitX=0.5;exitY=1;exitDx=0;exitDy=0;" edge="1" parent="1" source="50">
                    <mxGeometry relative="1" as="geometry">
                        <mxPoint x="740" y="419.9999999999998" as="targetPoint"/>
                    </mxGeometry>
                </mxCell>
                <mxCell id="50" value="&lt;font face=&quot;Courier New&quot;&gt;...&lt;/font&gt;" style="rounded=0;whiteSpace=wrap;html=1;" vertex="1" parent="1">
                    <mxGeometry x="680" y="370" width="120" height="30" as="geometry"/>
                </mxCell>
                <mxCell id="51" style="edgeStyle=orthogonalEdgeStyle;rounded=0;orthogonalLoop=1;jettySize=auto;html=1;exitX=0.5;exitY=1;exitDx=0;exitDy=0;entryX=0.5;entryY=0;entryDx=0;entryDy=0;" edge="1" parent="1" source="52" target="42">
                    <mxGeometry relative="1" as="geometry"/>
                </mxCell>
                <mxCell id="52" value="&lt;font face=&quot;Courier New&quot;&gt;&lt;b style=&quot;color: rgb(0, 0, 255);&quot;&gt;let &lt;/b&gt;x := a + b&lt;/font&gt;" style="rounded=0;whiteSpace=wrap;html=1;" vertex="1" parent="1">
                    <mxGeometry x="600" y="150" width="120" height="30" as="geometry"/>
                </mxCell>
                <mxCell id="53" style="edgeStyle=orthogonalEdgeStyle;rounded=0;orthogonalLoop=1;jettySize=auto;html=1;exitX=0.5;exitY=1;exitDx=0;exitDy=0;entryX=0.5;entryY=0;entryDx=0;entryDy=0;" edge="1" parent="1" source="54" target="44">
                    <mxGeometry relative="1" as="geometry"/>
                </mxCell>
                <mxCell id="54" value="&lt;font face=&quot;Courier New&quot;&gt;...&lt;/font&gt;" style="rounded=0;whiteSpace=wrap;html=1;" vertex="1" parent="1">
                    <mxGeometry x="760" y="150" width="120" height="30" as="geometry"/>
                </mxCell>
                <mxCell id="55" style="edgeStyle=orthogonalEdgeStyle;rounded=0;orthogonalLoop=1;jettySize=auto;html=1;exitX=0.5;exitY=1;exitDx=0;exitDy=0;entryX=0.5;entryY=0;entryDx=0;entryDy=0;" edge="1" parent="1" source="56" target="50">
                    <mxGeometry relative="1" as="geometry"/>
                </mxCell>
                <mxCell id="56" value="&lt;b&gt;&lt;font color=&quot;#0000ff&quot; face=&quot;Courier New&quot;&gt;let&lt;/font&gt;&lt;/b&gt;&lt;font face=&quot;Courier New&quot;&gt;&amp;nbsp;z := a + b&lt;br&gt;&lt;/font&gt;" style="rounded=0;whiteSpace=wrap;html=1;" vertex="1" parent="1">
                    <mxGeometry x="680" y="320" width="120" height="30" as="geometry"/>
                </mxCell>
                <mxCell id="57" style="edgeStyle=none;html=1;exitX=0.25;exitY=1;exitDx=0;exitDy=0;entryX=0.5;entryY=0;entryDx=0;entryDy=0;fontFamily=Courier New;fontColor=#000000;rounded=0;" edge="1" parent="1" source="59" target="52">
                    <mxGeometry relative="1" as="geometry">
                        <Array as="points">
                            <mxPoint x="710" y="130"/>
                            <mxPoint x="660" y="130"/>
                        </Array>
                    </mxGeometry>
                </mxCell>
                <mxCell id="58" style="edgeStyle=none;rounded=0;html=1;exitX=0.75;exitY=1;exitDx=0;exitDy=0;entryX=0.5;entryY=0;entryDx=0;entryDy=0;fontFamily=Courier New;fontColor=#000000;" edge="1" parent="1" source="59" target="54">
                    <mxGeometry relative="1" as="geometry">
                        <Array as="points">
                            <mxPoint x="770" y="130"/>
                            <mxPoint x="820" y="130"/>
                        </Array>
                    </mxGeometry>
                </mxCell>
                <mxCell id="59" value="&lt;font face=&quot;Courier New&quot;&gt;...&lt;/font&gt;" style="rounded=0;whiteSpace=wrap;html=1;" vertex="1" parent="1">
                    <mxGeometry x="680" y="80" width="120" height="30" as="geometry"/>
                </mxCell>
                <mxCell id="60" style="edgeStyle=none;rounded=1;html=1;fontFamily=Courier New;fontColor=#000000;fillColor=#f8cecc;strokeColor=#FF3333;strokeWidth=2;exitX=0.08;exitY=0;exitDx=0;exitDy=0;exitPerimeter=0;endArrow=oval;endFill=1;entryX=0.083;entryY=1.002;entryDx=0;entryDy=0;entryPerimeter=0;startArrow=oval;startFill=1;" edge="1" parent="1" source="52" target="56">
                    <mxGeometry relative="1" as="geometry">
                        <mxPoint x="620" y="180" as="sourcePoint"/>
                        <mxPoint x="690" y="350" as="targetPoint"/>
                        <Array as="points">
                            <mxPoint x="610" y="260"/>
                            <mxPoint x="690" y="260"/>
                            <mxPoint x="690" y="290"/>
                            <mxPoint x="690" y="310"/>
                        </Array>
                    </mxGeometry>
                </mxCell>
                <mxCell id="61" value="" style="edgeStyle=none;rounded=1;html=1;dashed=1;strokeColor=#d79b00;strokeWidth=1;fontFamily=Courier New;fontSize=10;fontColor=#000000;startArrow=none;startFill=0;endArrow=classic;endFill=1;fillColor=#ffe6cc;" edge="1" parent="1" source="62" target="56">
                    <mxGeometry relative="1" as="geometry"/>
                </mxCell>
                <mxCell id="62" value="&lt;font style=&quot;font-size: 10px;&quot; face=&quot;Courier New&quot;&gt;replace&lt;/font&gt;" style="rounded=1;whiteSpace=wrap;html=1;fillColor=#ffe6cc;strokeColor=#d79b00;fillStyle=auto;dashed=1;" vertex="1" parent="1">
                    <mxGeometry x="830" y="325" width="70" height="20" as="geometry"/>
                </mxCell>
                <mxCell id="88" style="edgeStyle=none;rounded=0;html=1;exitX=0;exitY=0.603;exitDx=0;exitDy=0;dashed=1;strokeColor=#d79b00;strokeWidth=1;fontFamily=Courier New;fontSize=10;fontColor=#000000;startArrow=none;startFill=0;endArrow=classic;endFill=1;fillColor=#ffe6cc;exitPerimeter=0;" edge="1" parent="1" source="64">
                    <mxGeometry relative="1" as="geometry">
                        <mxPoint x="820" y="250" as="targetPoint"/>
                        <Array as="points">
                            <mxPoint x="840" y="240"/>
                            <mxPoint x="840" y="250"/>
                        </Array>
                    </mxGeometry>
                </mxCell>
                <mxCell id="64" value="&lt;font style=&quot;font-size: 10px;&quot; face=&quot;Courier New&quot;&gt;another path meets redundancy path:&lt;br&gt;insert new node&lt;/font&gt;" style="rounded=1;whiteSpace=wrap;html=1;fillColor=#ffe6cc;strokeColor=#d79b00;fillStyle=auto;dashed=1;" vertex="1" parent="1">
                    <mxGeometry x="850" y="210" width="210" height="50" as="geometry"/>
                </mxCell>
                <mxCell id="86" style="edgeStyle=none;rounded=1;html=1;dashed=1;strokeColor=#d79b00;strokeWidth=1;fontFamily=Courier New;fontSize=10;fontColor=#000000;startArrow=none;startFill=0;endArrow=classic;endFill=1;entryX=0;entryY=0;entryDx=0;entryDy=0;exitX=0.37;exitY=0.995;exitDx=0;exitDy=0;exitPerimeter=0;fillColor=#ffe6cc;" edge="1" parent="1" source="66" target="52">
                    <mxGeometry relative="1" as="geometry">
                        <mxPoint x="549.973154362416" y="160.00000000000006" as="targetPoint"/>
                        <mxPoint x="550" y="120" as="sourcePoint"/>
                    </mxGeometry>
                </mxCell>
                <mxCell id="66" value="&lt;font style=&quot;font-size: 10px;&quot; face=&quot;Courier New&quot;&gt;insert &amp;amp; replace&lt;/font&gt;" style="rounded=1;whiteSpace=wrap;html=1;fillColor=#ffe6cc;strokeColor=#d79b00;fillStyle=auto;dashed=1;" vertex="1" parent="1">
                    <mxGeometry x="560" y="100" width="110" height="20" as="geometry"/>
                </mxCell>
                <mxCell id="89" style="edgeStyle=orthogonalEdgeStyle;rounded=0;orthogonalLoop=1;jettySize=auto;html=1;exitX=0.5;exitY=1;exitDx=0;exitDy=0;entryX=0.25;entryY=0;entryDx=0;entryDy=0;" edge="1" parent="1" source="90" target="94">
                    <mxGeometry relative="1" as="geometry"/>
                </mxCell>
                <mxCell id="90" value="&lt;font face=&quot;Courier New&quot;&gt;&lt;b style=&quot;&quot;&gt;...&lt;/b&gt;&lt;/font&gt;" style="rounded=0;whiteSpace=wrap;html=1;" vertex="1" parent="1">
                    <mxGeometry x="1080" y="250" width="120" height="30" as="geometry"/>
                </mxCell>
                <mxCell id="111" value="" style="edgeStyle=none;rounded=0;html=1;strokeColor=#000000;strokeWidth=1;fontFamily=Courier New;fontSize=10;fontColor=#000000;startArrow=none;startFill=0;endArrow=classic;endFill=1;" edge="1" parent="1" source="92" target="110">
                    <mxGeometry relative="1" as="geometry"/>
                </mxCell>
                <mxCell id="92" value="&lt;font face=&quot;Courier New&quot;&gt;...&lt;/font&gt;" style="rounded=0;whiteSpace=wrap;html=1;align=center;" vertex="1" parent="1">
                    <mxGeometry x="1240" y="200" width="120" height="30" as="geometry"/>
                </mxCell>
                <mxCell id="93" style="edgeStyle=orthogonalEdgeStyle;rounded=0;orthogonalLoop=1;jettySize=auto;html=1;exitX=0.5;exitY=1;exitDx=0;exitDy=0;entryX=0.5;entryY=0;entryDx=0;entryDy=0;" edge="1" parent="1" source="94" target="102">
                    <mxGeometry relative="1" as="geometry"/>
                </mxCell>
                <mxCell id="94" value="&lt;b&gt;&lt;font color=&quot;#0000ff&quot; face=&quot;Courier New&quot;&gt;let&lt;/font&gt;&lt;/b&gt;&lt;font face=&quot;Courier New&quot;&gt;&amp;nbsp;y := &lt;font color=&quot;#ff3333&quot;&gt;h&lt;/font&gt;&lt;/font&gt;" style="rounded=0;whiteSpace=wrap;html=1;" vertex="1" parent="1">
                    <mxGeometry x="1160" y="320" width="120" height="30" as="geometry"/>
                </mxCell>
                <mxCell id="95" style="edgeStyle=none;html=1;exitX=0.5;exitY=1;exitDx=0;exitDy=0;" edge="1" parent="1" source="96">
                    <mxGeometry relative="1" as="geometry">
                        <mxPoint x="1220" y="470" as="targetPoint"/>
                    </mxGeometry>
                </mxCell>
                <mxCell id="96" value="&lt;font face=&quot;Courier New&quot;&gt;...&lt;/font&gt;" style="rounded=0;whiteSpace=wrap;html=1;" vertex="1" parent="1">
                    <mxGeometry x="1160" y="420" width="120" height="30" as="geometry"/>
                </mxCell>
                <mxCell id="97" style="edgeStyle=orthogonalEdgeStyle;rounded=0;orthogonalLoop=1;jettySize=auto;html=1;exitX=0.5;exitY=1;exitDx=0;exitDy=0;entryX=0.5;entryY=0;entryDx=0;entryDy=0;" edge="1" parent="1" source="98" target="90">
                    <mxGeometry relative="1" as="geometry"/>
                </mxCell>
                <mxCell id="98" value="&lt;font face=&quot;Courier New&quot;&gt;&lt;b style=&quot;color: rgb(0, 0, 255);&quot;&gt;let &lt;/b&gt;x := &lt;font color=&quot;#ff3333&quot;&gt;h&lt;/font&gt;&lt;/font&gt;" style="rounded=0;whiteSpace=wrap;html=1;" vertex="1" parent="1">
                    <mxGeometry x="1080" y="200" width="120" height="30" as="geometry"/>
                </mxCell>
                <mxCell id="99" style="edgeStyle=orthogonalEdgeStyle;rounded=0;orthogonalLoop=1;jettySize=auto;html=1;exitX=0.5;exitY=1;exitDx=0;exitDy=0;entryX=0.5;entryY=0;entryDx=0;entryDy=0;" edge="1" parent="1" source="100" target="92">
                    <mxGeometry relative="1" as="geometry"/>
                </mxCell>
                <mxCell id="100" value="&lt;font face=&quot;Courier New&quot;&gt;...&lt;/font&gt;" style="rounded=0;whiteSpace=wrap;html=1;" vertex="1" parent="1">
                    <mxGeometry x="1240" y="150" width="120" height="30" as="geometry"/>
                </mxCell>
                <mxCell id="101" style="edgeStyle=orthogonalEdgeStyle;rounded=0;orthogonalLoop=1;jettySize=auto;html=1;exitX=0.5;exitY=1;exitDx=0;exitDy=0;entryX=0.5;entryY=0;entryDx=0;entryDy=0;" edge="1" parent="1" source="102" target="96">
                    <mxGeometry relative="1" as="geometry"/>
                </mxCell>
                <mxCell id="102" value="&lt;b&gt;&lt;font color=&quot;#0000ff&quot; face=&quot;Courier New&quot;&gt;let&lt;/font&gt;&lt;/b&gt;&lt;font face=&quot;Courier New&quot;&gt;&amp;nbsp;z := &lt;font color=&quot;#ff3333&quot;&gt;h&lt;/font&gt;&lt;br&gt;&lt;/font&gt;" style="rounded=0;whiteSpace=wrap;html=1;" vertex="1" parent="1">
                    <mxGeometry x="1160" y="370" width="120" height="30" as="geometry"/>
                </mxCell>
                <mxCell id="104" style="edgeStyle=none;rounded=0;html=1;exitX=0.75;exitY=1;exitDx=0;exitDy=0;entryX=0.5;entryY=0;entryDx=0;entryDy=0;fontFamily=Courier New;fontColor=#000000;" edge="1" parent="1" source="105" target="100">
                    <mxGeometry relative="1" as="geometry">
                        <Array as="points">
                            <mxPoint x="1250" y="130"/>
                            <mxPoint x="1300" y="130"/>
                            <mxPoint x="1300" y="180"/>
                        </Array>
                    </mxGeometry>
                </mxCell>
                <mxCell id="108" style="edgeStyle=none;rounded=0;html=1;exitX=0.25;exitY=1;exitDx=0;exitDy=0;entryX=0.5;entryY=0;entryDx=0;entryDy=0;strokeColor=#000000;strokeWidth=1;fontFamily=Courier New;fontSize=10;fontColor=#000000;startArrow=none;startFill=0;endArrow=classic;endFill=1;" edge="1" parent="1" source="105" target="107">
                    <mxGeometry relative="1" as="geometry">
                        <Array as="points">
                            <mxPoint x="1190" y="130"/>
                            <mxPoint x="1140" y="130"/>
                        </Array>
                    </mxGeometry>
                </mxCell>
                <mxCell id="105" value="&lt;font face=&quot;Courier New&quot;&gt;...&lt;/font&gt;" style="rounded=0;whiteSpace=wrap;html=1;" vertex="1" parent="1">
                    <mxGeometry x="1160" y="80" width="120" height="30" as="geometry"/>
                </mxCell>
                <mxCell id="109" value="" style="edgeStyle=none;rounded=0;html=1;strokeColor=#000000;strokeWidth=1;fontFamily=Courier New;fontSize=10;fontColor=#000000;startArrow=none;startFill=0;endArrow=classic;endFill=1;" edge="1" parent="1" source="107" target="98">
                    <mxGeometry relative="1" as="geometry"/>
                </mxCell>
                <mxCell id="107" value="&lt;font face=&quot;Courier New&quot;&gt;&lt;b style=&quot;color: rgb(0, 0, 255);&quot;&gt;let &lt;/b&gt;h&amp;nbsp;:= a + b&lt;/font&gt;" style="rounded=0;whiteSpace=wrap;html=1;strokeColor=#FF3333;" vertex="1" parent="1">
                    <mxGeometry x="1080" y="150" width="120" height="30" as="geometry"/>
                </mxCell>
                <mxCell id="112" value="" style="edgeStyle=none;rounded=0;html=1;strokeColor=#000000;strokeWidth=1;fontFamily=Courier New;fontSize=10;fontColor=#000000;startArrow=none;startFill=0;endArrow=classic;endFill=1;entryX=0.75;entryY=0;entryDx=0;entryDy=0;" edge="1" parent="1" source="110" target="94">
                    <mxGeometry relative="1" as="geometry">
                        <Array as="points">
                            <mxPoint x="1300" y="300"/>
                            <mxPoint x="1250" y="300"/>
                        </Array>
                    </mxGeometry>
                </mxCell>
                <mxCell id="110" value="&lt;font face=&quot;Courier New&quot;&gt;&lt;b style=&quot;color: rgb(0, 0, 255);&quot;&gt;let &lt;/b&gt;h&amp;nbsp;:= a + b&lt;/font&gt;" style="rounded=0;whiteSpace=wrap;html=1;strokeColor=#FF3333;" vertex="1" parent="1">
                    <mxGeometry x="1240" y="250" width="120" height="30" as="geometry"/>
                </mxCell>
            </root>
        </mxGraphModel>
    </diagram>
    <diagram name="AntLoc" id="HBRzHjd53snMtBhAVQGy">
        <mxGraphModel dx="1386" dy="770" grid="1" gridSize="10" guides="1" tooltips="1" connect="1" arrows="1" fold="1" page="1" pageScale="1" pageWidth="850" pageHeight="1100" math="0" shadow="0">
            <root>
                <mxCell id="YvbJ3qOu-Zn39uqI6h37-0"/>
                <mxCell id="YvbJ3qOu-Zn39uqI6h37-1" parent="YvbJ3qOu-Zn39uqI6h37-0"/>
                <mxCell id="PHn8JXdeRfOQBnLgi85y-3" style="edgeStyle=orthogonalEdgeStyle;rounded=0;orthogonalLoop=1;jettySize=auto;html=1;exitX=0.5;exitY=1;exitDx=0;exitDy=0;entryX=0.5;entryY=0;entryDx=0;entryDy=0;" parent="YvbJ3qOu-Zn39uqI6h37-1" source="YvbJ3qOu-Zn39uqI6h37-3" target="PHn8JXdeRfOQBnLgi85y-2" edge="1">
                    <mxGeometry relative="1" as="geometry"/>
                </mxCell>
                <mxCell id="YvbJ3qOu-Zn39uqI6h37-3" value="&lt;strike&gt;&lt;b&gt;&lt;font color=&quot;#0000ff&quot; face=&quot;Courier New&quot;&gt;let&lt;/font&gt;&lt;/b&gt;&lt;font face=&quot;Courier New&quot;&gt; x := a + b&lt;/font&gt;&lt;/strike&gt;" style="rounded=0;whiteSpace=wrap;html=1;" parent="YvbJ3qOu-Zn39uqI6h37-1" vertex="1">
                    <mxGeometry x="260" y="320" width="120" height="30" as="geometry"/>
                </mxCell>
                <mxCell id="PHn8JXdeRfOQBnLgi85y-5" style="edgeStyle=orthogonalEdgeStyle;rounded=0;orthogonalLoop=1;jettySize=auto;html=1;exitX=0.5;exitY=1;exitDx=0;exitDy=0;entryX=0.5;entryY=0;entryDx=0;entryDy=0;" parent="YvbJ3qOu-Zn39uqI6h37-1" source="YvbJ3qOu-Zn39uqI6h37-5" target="PHn8JXdeRfOQBnLgi85y-4" edge="1">
                    <mxGeometry relative="1" as="geometry"/>
                </mxCell>
                <mxCell id="YvbJ3qOu-Zn39uqI6h37-5" value="&lt;font face=&quot;Courier New&quot;&gt;&lt;strike&gt;&lt;b&gt;&lt;font color=&quot;#0000ff&quot;&gt;let&lt;/font&gt;&lt;/b&gt; y := a + b&lt;/strike&gt;&lt;/font&gt;" style="rounded=0;whiteSpace=wrap;html=1;" parent="YvbJ3qOu-Zn39uqI6h37-1" vertex="1">
                    <mxGeometry x="420" y="320" width="120" height="30" as="geometry"/>
                </mxCell>
                <mxCell id="4cVdJb_vTewybCNpEg78-0" style="edgeStyle=orthogonalEdgeStyle;rounded=0;orthogonalLoop=1;jettySize=auto;html=1;exitX=0.25;exitY=1;exitDx=0;exitDy=0;" parent="YvbJ3qOu-Zn39uqI6h37-1" source="YvbJ3qOu-Zn39uqI6h37-6" target="YvbJ3qOu-Zn39uqI6h37-3" edge="1">
                    <mxGeometry relative="1" as="geometry"/>
                </mxCell>
                <mxCell id="4cVdJb_vTewybCNpEg78-1" style="edgeStyle=orthogonalEdgeStyle;rounded=0;orthogonalLoop=1;jettySize=auto;html=1;exitX=0.75;exitY=1;exitDx=0;exitDy=0;entryX=0.5;entryY=0;entryDx=0;entryDy=0;" parent="YvbJ3qOu-Zn39uqI6h37-1" source="YvbJ3qOu-Zn39uqI6h37-6" target="YvbJ3qOu-Zn39uqI6h37-5" edge="1">
                    <mxGeometry relative="1" as="geometry"/>
                </mxCell>
                <mxCell id="YvbJ3qOu-Zn39uqI6h37-6" value="&lt;b&gt;&lt;font color=&quot;#0000ff&quot; face=&quot;Courier New&quot;&gt;let&lt;/font&gt;&lt;/b&gt;&lt;font face=&quot;Courier New&quot;&gt; h := a + b&lt;/font&gt;" style="rounded=0;whiteSpace=wrap;html=1;" parent="YvbJ3qOu-Zn39uqI6h37-1" vertex="1">
                    <mxGeometry x="340" y="250" width="120" height="30" as="geometry"/>
                </mxCell>
                <mxCell id="un0K2ZpRhueaPoAnLyFG-1" style="edgeStyle=orthogonalEdgeStyle;rounded=0;orthogonalLoop=1;jettySize=auto;html=1;exitX=0.5;exitY=1;exitDx=0;exitDy=0;dashed=1;fillColor=#ffe6cc;strokeColor=#d79b00;curved=0;" parent="YvbJ3qOu-Zn39uqI6h37-1" source="YvbJ3qOu-Zn39uqI6h37-8" edge="1">
                    <mxGeometry relative="1" as="geometry">
                        <mxPoint x="459.9999999999999" y="260" as="targetPoint"/>
                    </mxGeometry>
                </mxCell>
                <mxCell id="YvbJ3qOu-Zn39uqI6h37-8" value="&lt;div&gt;&lt;font face=&quot;Courier New&quot;&gt;&quot;a + b&quot; is locally&lt;/font&gt;&lt;/div&gt;&lt;div&gt;&lt;font face=&quot;Courier New&quot;&gt;anticipated&lt;br&gt;&lt;/font&gt;&lt;/div&gt;&amp;nbsp;and therfore safe for insertion" style="rounded=1;whiteSpace=wrap;html=1;fillColor=#ffe6cc;strokeColor=#d79b00;fillStyle=auto;dashed=1;" parent="YvbJ3qOu-Zn39uqI6h37-1" vertex="1">
                    <mxGeometry x="470" y="170" width="170" height="70" as="geometry"/>
                </mxCell>
                <mxCell id="un0K2ZpRhueaPoAnLyFG-0" style="edgeStyle=orthogonalEdgeStyle;rounded=0;orthogonalLoop=1;jettySize=auto;html=1;exitX=0.5;exitY=1;exitDx=0;exitDy=0;entryX=1.032;entryY=0.302;entryDx=0;entryDy=0;entryPerimeter=0;fillColor=#ffe6cc;strokeColor=none;dashed=1;" parent="YvbJ3qOu-Zn39uqI6h37-1" source="YvbJ3qOu-Zn39uqI6h37-8" target="YvbJ3qOu-Zn39uqI6h37-6" edge="1">
                    <mxGeometry relative="1" as="geometry"/>
                </mxCell>
                <mxCell id="PHn8JXdeRfOQBnLgi85y-1" style="edgeStyle=orthogonalEdgeStyle;rounded=0;orthogonalLoop=1;jettySize=auto;html=1;exitX=0.5;exitY=1;exitDx=0;exitDy=0;entryX=0.5;entryY=0;entryDx=0;entryDy=0;" parent="YvbJ3qOu-Zn39uqI6h37-1" source="PHn8JXdeRfOQBnLgi85y-0" target="YvbJ3qOu-Zn39uqI6h37-6" edge="1">
                    <mxGeometry relative="1" as="geometry"/>
                </mxCell>
                <mxCell id="PHn8JXdeRfOQBnLgi85y-0" value="&lt;font face=&quot;Courier New&quot;&gt;...&lt;/font&gt;" style="rounded=0;whiteSpace=wrap;html=1;" parent="YvbJ3qOu-Zn39uqI6h37-1" vertex="1">
                    <mxGeometry x="340" y="200" width="120" height="30" as="geometry"/>
                </mxCell>
                <mxCell id="PHn8JXdeRfOQBnLgi85y-7" style="edgeStyle=orthogonalEdgeStyle;rounded=0;orthogonalLoop=1;jettySize=auto;html=1;exitX=0.5;exitY=1;exitDx=0;exitDy=0;entryX=0.5;entryY=0;entryDx=0;entryDy=0;" parent="YvbJ3qOu-Zn39uqI6h37-1" source="PHn8JXdeRfOQBnLgi85y-2" target="PHn8JXdeRfOQBnLgi85y-6" edge="1">
                    <mxGeometry relative="1" as="geometry"/>
                </mxCell>
                <mxCell id="PHn8JXdeRfOQBnLgi85y-2" value="&lt;b&gt;&lt;font color=&quot;#0000ff&quot; face=&quot;Courier New&quot;&gt;let&lt;/font&gt;&lt;/b&gt;&lt;font face=&quot;Courier New&quot;&gt; x := h&lt;/font&gt;" style="rounded=0;whiteSpace=wrap;html=1;" parent="YvbJ3qOu-Zn39uqI6h37-1" vertex="1">
                    <mxGeometry x="260" y="370" width="120" height="30" as="geometry"/>
                </mxCell>
                <mxCell id="PHn8JXdeRfOQBnLgi85y-9" style="edgeStyle=orthogonalEdgeStyle;rounded=0;orthogonalLoop=1;jettySize=auto;html=1;exitX=0.5;exitY=1;exitDx=0;exitDy=0;entryX=0.5;entryY=0;entryDx=0;entryDy=0;" parent="YvbJ3qOu-Zn39uqI6h37-1" source="PHn8JXdeRfOQBnLgi85y-4" target="PHn8JXdeRfOQBnLgi85y-8" edge="1">
                    <mxGeometry relative="1" as="geometry"/>
                </mxCell>
                <mxCell id="PHn8JXdeRfOQBnLgi85y-4" value="&lt;font face=&quot;Courier New&quot;&gt;&lt;b&gt;&lt;font color=&quot;#0000ff&quot;&gt;let&lt;/font&gt;&lt;/b&gt; y := h&lt;/font&gt;" style="rounded=0;whiteSpace=wrap;html=1;" parent="YvbJ3qOu-Zn39uqI6h37-1" vertex="1">
                    <mxGeometry x="420" y="370" width="120" height="30" as="geometry"/>
                </mxCell>
                <mxCell id="PHn8JXdeRfOQBnLgi85y-6" value="&lt;font face=&quot;Courier New&quot;&gt;...&lt;/font&gt;" style="rounded=0;whiteSpace=wrap;html=1;" parent="YvbJ3qOu-Zn39uqI6h37-1" vertex="1">
                    <mxGeometry x="260" y="420" width="120" height="30" as="geometry"/>
                </mxCell>
                <mxCell id="PHn8JXdeRfOQBnLgi85y-8" value="&lt;font face=&quot;Courier New&quot;&gt;...&lt;/font&gt;" style="rounded=0;whiteSpace=wrap;html=1;" parent="YvbJ3qOu-Zn39uqI6h37-1" vertex="1">
                    <mxGeometry x="420" y="420" width="120" height="30" as="geometry"/>
                </mxCell>
            </root>
        </mxGraphModel>
    </diagram>
    <diagram name="Copy of AntLoc" id="iUCKmOk3y1fLgvqzeacz">
        <mxGraphModel dx="1386" dy="770" grid="1" gridSize="10" guides="1" tooltips="1" connect="1" arrows="1" fold="1" page="1" pageScale="1" pageWidth="850" pageHeight="1100" math="0" shadow="0">
            <root>
                <mxCell id="obEwCWtLb-9HuxPw7Qvw-0"/>
                <mxCell id="obEwCWtLb-9HuxPw7Qvw-1" parent="obEwCWtLb-9HuxPw7Qvw-0"/>
                <mxCell id="obEwCWtLb-9HuxPw7Qvw-2" value="&lt;b&gt;&lt;font face=&quot;Courier New&quot; color=&quot;#0000ff&quot;&gt;let&lt;/font&gt;&lt;/b&gt;&lt;font face=&quot;Courier New&quot;&gt; x := a + b&lt;/font&gt;" style="rounded=0;whiteSpace=wrap;html=1;" parent="obEwCWtLb-9HuxPw7Qvw-1" vertex="1">
                    <mxGeometry x="260" y="320" width="120" height="30" as="geometry"/>
                </mxCell>
                <mxCell id="obEwCWtLb-9HuxPw7Qvw-3" value="&lt;font face=&quot;Courier New&quot;&gt;&lt;b&gt;&lt;font color=&quot;#0000ff&quot;&gt;let&lt;/font&gt;&lt;/b&gt; y := b + c&lt;br&gt;&lt;/font&gt;" style="rounded=0;whiteSpace=wrap;html=1;" parent="obEwCWtLb-9HuxPw7Qvw-1" vertex="1">
                    <mxGeometry x="420" y="320" width="120" height="30" as="geometry"/>
                </mxCell>
                <mxCell id="obEwCWtLb-9HuxPw7Qvw-4" style="edgeStyle=orthogonalEdgeStyle;rounded=0;orthogonalLoop=1;jettySize=auto;html=1;exitX=0.25;exitY=1;exitDx=0;exitDy=0;" parent="obEwCWtLb-9HuxPw7Qvw-1" source="obEwCWtLb-9HuxPw7Qvw-6" target="obEwCWtLb-9HuxPw7Qvw-2" edge="1">
                    <mxGeometry relative="1" as="geometry"/>
                </mxCell>
                <mxCell id="obEwCWtLb-9HuxPw7Qvw-5" style="edgeStyle=orthogonalEdgeStyle;rounded=0;orthogonalLoop=1;jettySize=auto;html=1;exitX=0.75;exitY=1;exitDx=0;exitDy=0;entryX=0.5;entryY=0;entryDx=0;entryDy=0;" parent="obEwCWtLb-9HuxPw7Qvw-1" source="obEwCWtLb-9HuxPw7Qvw-6" target="obEwCWtLb-9HuxPw7Qvw-3" edge="1">
                    <mxGeometry relative="1" as="geometry"/>
                </mxCell>
                <mxCell id="obEwCWtLb-9HuxPw7Qvw-6" value="&lt;font face=&quot;Courier New&quot;&gt;...&lt;/font&gt;" style="rounded=0;whiteSpace=wrap;html=1;" parent="obEwCWtLb-9HuxPw7Qvw-1" vertex="1">
                    <mxGeometry x="340" y="250" width="120" height="30" as="geometry"/>
                </mxCell>
                <mxCell id="obEwCWtLb-9HuxPw7Qvw-7" style="edgeStyle=orthogonalEdgeStyle;rounded=0;orthogonalLoop=1;jettySize=auto;html=1;exitX=0.5;exitY=1;exitDx=0;exitDy=0;dashed=1;fillColor=#ffe6cc;strokeColor=#d79b00;curved=0;" parent="obEwCWtLb-9HuxPw7Qvw-1" source="obEwCWtLb-9HuxPw7Qvw-8" edge="1">
                    <mxGeometry relative="1" as="geometry">
                        <mxPoint x="459.9999999999999" y="260" as="targetPoint"/>
                    </mxGeometry>
                </mxCell>
                <mxCell id="obEwCWtLb-9HuxPw7Qvw-8" value="&lt;div&gt;&lt;font face=&quot;Courier New&quot;&gt;&quot;a + b&quot; is partially&lt;br&gt;&lt;/font&gt;&lt;/div&gt;&lt;div&gt;&lt;font face=&quot;Courier New&quot;&gt;anticipated&lt;br&gt;&lt;/font&gt;&lt;/div&gt;" style="rounded=1;whiteSpace=wrap;html=1;fillColor=#ffe6cc;strokeColor=#d79b00;fillStyle=auto;dashed=1;" parent="obEwCWtLb-9HuxPw7Qvw-1" vertex="1">
                    <mxGeometry x="470" y="200" width="170" height="40" as="geometry"/>
                </mxCell>
                <mxCell id="obEwCWtLb-9HuxPw7Qvw-9" style="edgeStyle=orthogonalEdgeStyle;rounded=0;orthogonalLoop=1;jettySize=auto;html=1;exitX=0.5;exitY=1;exitDx=0;exitDy=0;entryX=1.032;entryY=0.302;entryDx=0;entryDy=0;entryPerimeter=0;fillColor=#ffe6cc;strokeColor=none;dashed=1;" parent="obEwCWtLb-9HuxPw7Qvw-1" source="obEwCWtLb-9HuxPw7Qvw-8" target="obEwCWtLb-9HuxPw7Qvw-6" edge="1">
                    <mxGeometry relative="1" as="geometry"/>
                </mxCell>
            </root>
        </mxGraphModel>
    </diagram>
    <diagram name="parAv" id="LFiR1pZ2u50ek4zSzHlh">
        <mxGraphModel dx="1386" dy="770" grid="1" gridSize="10" guides="1" tooltips="1" connect="1" arrows="1" fold="1" page="1" pageScale="1" pageWidth="850" pageHeight="1100" math="0" shadow="0">
            <root>
                <mxCell id="pjfeE030T6K805F_rOqT-0"/>
                <mxCell id="pjfeE030T6K805F_rOqT-1" parent="pjfeE030T6K805F_rOqT-0"/>
                <mxCell id="pjfeE030T6K805F_rOqT-2" style="edgeStyle=orthogonalEdgeStyle;rounded=0;orthogonalLoop=1;jettySize=auto;html=1;exitX=0.5;exitY=1;exitDx=0;exitDy=0;entryX=0.25;entryY=0;entryDx=0;entryDy=0;" parent="pjfeE030T6K805F_rOqT-1" source="pjfeE030T6K805F_rOqT-3" target="pjfeE030T6K805F_rOqT-6" edge="1">
                    <mxGeometry relative="1" as="geometry"/>
                </mxCell>
                <mxCell id="pjfeE030T6K805F_rOqT-3" value="&lt;font face=&quot;Courier New&quot;&gt;&lt;b&gt;&lt;font color=&quot;#0000ff&quot;&gt;let&lt;/font&gt;&lt;/b&gt; x := a + b&lt;/font&gt;" style="rounded=0;whiteSpace=wrap;html=1;" parent="pjfeE030T6K805F_rOqT-1" vertex="1">
                    <mxGeometry x="260" y="200" width="120" height="30" as="geometry"/>
                </mxCell>
                <mxCell id="pjfeE030T6K805F_rOqT-4" style="edgeStyle=orthogonalEdgeStyle;rounded=0;orthogonalLoop=1;jettySize=auto;html=1;exitX=0.5;exitY=1;exitDx=0;exitDy=0;entryX=0.75;entryY=0;entryDx=0;entryDy=0;" parent="pjfeE030T6K805F_rOqT-1" source="pjfeE030T6K805F_rOqT-5" target="pjfeE030T6K805F_rOqT-6" edge="1">
                    <mxGeometry relative="1" as="geometry"/>
                </mxCell>
                <mxCell id="pjfeE030T6K805F_rOqT-5" value="&lt;font face=&quot;Courier New&quot;&gt;&lt;b&gt;&lt;font color=&quot;#0000ff&quot;&gt;let&lt;/font&gt;&lt;/b&gt; v := b + c&lt;/font&gt;" style="rounded=0;whiteSpace=wrap;html=1;" parent="pjfeE030T6K805F_rOqT-1" vertex="1">
                    <mxGeometry x="420" y="200" width="120" height="30" as="geometry"/>
                </mxCell>
                <mxCell id="pjfeE030T6K805F_rOqT-6" value="&lt;font face=&quot;Courier New&quot;&gt;...&lt;/font&gt;" style="rounded=0;whiteSpace=wrap;html=1;" parent="pjfeE030T6K805F_rOqT-1" vertex="1">
                    <mxGeometry x="340" y="270" width="120" height="30" as="geometry"/>
                </mxCell>
                <mxCell id="pjfeE030T6K805F_rOqT-7" value="&lt;font face=&quot;Courier New&quot;&gt;&quot;a + b&quot; is partially available&lt;/font&gt;" style="rounded=1;whiteSpace=wrap;html=1;fillColor=#ffe6cc;strokeColor=#d79b00;fillStyle=auto;dashed=1;" parent="pjfeE030T6K805F_rOqT-1" vertex="1">
                    <mxGeometry x="470" y="310" width="170" height="40" as="geometry"/>
                </mxCell>
                <mxCell id="pjfeE030T6K805F_rOqT-8" style="edgeStyle=orthogonalEdgeStyle;rounded=0;orthogonalLoop=1;jettySize=auto;html=1;exitX=0.5;exitY=0;exitDx=0;exitDy=0;entryX=1;entryY=0.333;entryDx=0;entryDy=0;entryPerimeter=0;fillColor=#ffe6cc;strokeColor=#d79b00;dashed=1;" parent="pjfeE030T6K805F_rOqT-1" source="pjfeE030T6K805F_rOqT-7" target="pjfeE030T6K805F_rOqT-6" edge="1">
                    <mxGeometry relative="1" as="geometry"/>
                </mxCell>
            </root>
        </mxGraphModel>
    </diagram>
    <diagram name="safeParAvPath" id="atnt238DI-qsnsdWDLip">
        <mxGraphModel dx="1386" dy="770" grid="1" gridSize="10" guides="1" tooltips="1" connect="1" arrows="1" fold="1" page="1" pageScale="1" pageWidth="850" pageHeight="1100" math="0" shadow="0">
            <root>
                <mxCell id="NsZwnCRHpvZoibDJXCyl-0"/>
                <mxCell id="NsZwnCRHpvZoibDJXCyl-1" parent="NsZwnCRHpvZoibDJXCyl-0"/>
                <mxCell id="NsZwnCRHpvZoibDJXCyl-2" style="edgeStyle=orthogonalEdgeStyle;rounded=0;orthogonalLoop=1;jettySize=auto;html=1;exitX=0.5;exitY=1;exitDx=0;exitDy=0;entryX=0.25;entryY=0;entryDx=0;entryDy=0;" parent="NsZwnCRHpvZoibDJXCyl-1" source="NsZwnCRHpvZoibDJXCyl-3" target="NsZwnCRHpvZoibDJXCyl-6" edge="1">
                    <mxGeometry relative="1" as="geometry"/>
                </mxCell>
                <mxCell id="NsZwnCRHpvZoibDJXCyl-3" value="&lt;font face=&quot;Courier New&quot;&gt;&lt;b&gt;&lt;font color=&quot;#0000ff&quot;&gt;let&lt;/font&gt;&lt;/b&gt; x := a + b&lt;/font&gt;" style="rounded=0;whiteSpace=wrap;html=1;" parent="NsZwnCRHpvZoibDJXCyl-1" vertex="1">
                    <mxGeometry x="260" y="200" width="120" height="30" as="geometry"/>
                </mxCell>
                <mxCell id="NsZwnCRHpvZoibDJXCyl-4" style="edgeStyle=orthogonalEdgeStyle;rounded=0;orthogonalLoop=1;jettySize=auto;html=1;exitX=0.5;exitY=1;exitDx=0;exitDy=0;entryX=0.75;entryY=0;entryDx=0;entryDy=0;" parent="NsZwnCRHpvZoibDJXCyl-1" source="NsZwnCRHpvZoibDJXCyl-5" target="NsZwnCRHpvZoibDJXCyl-6" edge="1">
                    <mxGeometry relative="1" as="geometry"/>
                </mxCell>
                <mxCell id="NsZwnCRHpvZoibDJXCyl-5" value="&lt;font face=&quot;Courier New&quot;&gt;&lt;b&gt;&lt;font color=&quot;#0000ff&quot;&gt;let&lt;/font&gt;&lt;/b&gt; v := b + c&lt;/font&gt;" style="rounded=0;whiteSpace=wrap;html=1;" parent="NsZwnCRHpvZoibDJXCyl-1" vertex="1">
                    <mxGeometry x="420" y="200" width="120" height="30" as="geometry"/>
                </mxCell>
                <mxCell id="iY3y75KT9fuxndTVaWPP-2" style="edgeStyle=orthogonalEdgeStyle;rounded=0;orthogonalLoop=1;jettySize=auto;html=1;exitX=0.5;exitY=1;exitDx=0;exitDy=0;entryX=0.5;entryY=0;entryDx=0;entryDy=0;" parent="NsZwnCRHpvZoibDJXCyl-1" source="NsZwnCRHpvZoibDJXCyl-6" target="iY3y75KT9fuxndTVaWPP-1" edge="1">
                    <mxGeometry relative="1" as="geometry"/>
                </mxCell>
                <mxCell id="NsZwnCRHpvZoibDJXCyl-6" value="&lt;font face=&quot;Courier New&quot;&gt;...&lt;/font&gt;" style="rounded=0;whiteSpace=wrap;html=1;" parent="NsZwnCRHpvZoibDJXCyl-1" vertex="1">
                    <mxGeometry x="340" y="270" width="120" height="30" as="geometry"/>
                </mxCell>
                <mxCell id="NsZwnCRHpvZoibDJXCyl-7" value="&lt;font face=&quot;Courier New&quot;&gt;&quot;a + b&quot; is partially available&lt;/font&gt;" style="rounded=1;whiteSpace=wrap;html=1;fillColor=#ffe6cc;strokeColor=#d79b00;fillStyle=auto;dashed=1;" parent="NsZwnCRHpvZoibDJXCyl-1" vertex="1">
                    <mxGeometry x="150" y="390" width="170" height="40" as="geometry"/>
                </mxCell>
                <mxCell id="NsZwnCRHpvZoibDJXCyl-8" style="edgeStyle=orthogonalEdgeStyle;rounded=0;orthogonalLoop=1;jettySize=auto;html=1;exitX=0.5;exitY=0;exitDx=0;exitDy=0;fillColor=#ffe6cc;strokeColor=#d79b00;dashed=1;" parent="NsZwnCRHpvZoibDJXCyl-1" source="NsZwnCRHpvZoibDJXCyl-7" edge="1">
                    <mxGeometry relative="1" as="geometry">
                        <mxPoint x="340" y="370" as="targetPoint"/>
                        <Array as="points">
                            <mxPoint x="235" y="370"/>
                        </Array>
                    </mxGeometry>
                </mxCell>
                <mxCell id="iY3y75KT9fuxndTVaWPP-1" value="&lt;font face=&quot;Courier New&quot;&gt;&lt;b&gt;&lt;font color=&quot;#0000ff&quot;&gt;let&lt;/font&gt;&lt;/b&gt; y := a + b&lt;/font&gt;" style="rounded=0;whiteSpace=wrap;html=1;" parent="NsZwnCRHpvZoibDJXCyl-1" vertex="1">
                    <mxGeometry x="340" y="330" width="120" height="30" as="geometry"/>
                </mxCell>
                <mxCell id="iY3y75KT9fuxndTVaWPP-3" style="edgeStyle=orthogonalEdgeStyle;rounded=1;orthogonalLoop=1;jettySize=auto;html=1;fillColor=#f8cecc;strokeColor=#b85450;curved=0;" parent="NsZwnCRHpvZoibDJXCyl-1" edge="1">
                    <mxGeometry relative="1" as="geometry">
                        <mxPoint x="350" y="390" as="targetPoint"/>
                        <mxPoint x="290" y="230" as="sourcePoint"/>
                        <Array as="points">
                            <mxPoint x="290" y="260"/>
                            <mxPoint x="350" y="260"/>
                            <mxPoint x="350" y="380"/>
                        </Array>
                    </mxGeometry>
                </mxCell>
            </root>
        </mxGraphModel>
    </diagram>
    <diagram id="AJ_CNNXMhjR3TmnnzZUz" name="Page-5">
        <mxGraphModel dx="1386" dy="770" grid="1" gridSize="10" guides="1" tooltips="1" connect="1" arrows="1" fold="1" page="1" pageScale="1" pageWidth="850" pageHeight="1100" math="0" shadow="0">
            <root>
                <mxCell id="0"/>
                <mxCell id="1" parent="0"/>
            </root>
        </mxGraphModel>
    </diagram>
</mxfile>